<mxfile host="app.diagrams.net" modified="2023-12-21T05:37:37.477Z" agent="Mozilla/5.0 (Windows NT 10.0; Win64; x64) AppleWebKit/537.36 (KHTML, like Gecko) Chrome/120.0.0.0 Safari/537.36" etag="Lsn7Iqa31eFhg9mbd-CM" version="22.1.11" type="github">
  <diagram name="第 1 页" id="YgKMIF94j1JEX70Hxrh9">
    <mxGraphModel dx="432" dy="295" grid="1" gridSize="10" guides="1" tooltips="1" connect="1" arrows="1" fold="1" page="1" pageScale="1" pageWidth="827" pageHeight="1169" math="0" shadow="0">
      <root>
        <mxCell id="0" />
        <mxCell id="1" parent="0" />
        <mxCell id="lgngBzsO5F9CQGL5NB09-3" style="edgeStyle=orthogonalEdgeStyle;rounded=0;orthogonalLoop=1;jettySize=auto;html=1;movable=0;resizable=0;rotatable=0;deletable=0;editable=0;locked=1;connectable=0;" edge="1" parent="1" source="lgngBzsO5F9CQGL5NB09-1" target="lgngBzsO5F9CQGL5NB09-2">
          <mxGeometry relative="1" as="geometry" />
        </mxCell>
        <mxCell id="lgngBzsO5F9CQGL5NB09-1" value="" style="ellipse;whiteSpace=wrap;html=1;movable=0;resizable=0;rotatable=0;deletable=0;editable=0;locked=1;connectable=0;" vertex="1" parent="1">
          <mxGeometry x="260" y="110" width="120" height="80" as="geometry" />
        </mxCell>
        <mxCell id="lgngBzsO5F9CQGL5NB09-2" value="" style="ellipse;whiteSpace=wrap;html=1;aspect=fixed;movable=0;resizable=0;rotatable=0;deletable=0;editable=0;locked=1;connectable=0;" vertex="1" parent="1">
          <mxGeometry x="290" y="330" width="60" height="60" as="geometry" />
        </mxCell>
      </root>
    </mxGraphModel>
  </diagram>
</mxfile>
